<svg width="48" height="48" viewBox="0 0 48 48" fill="none" xmlns="http://www.w3.org/2000/svg">
<path d="M36.94 33.66L37.72 39.98C37.92 41.64 36.14 42.8 34.72 41.94L27.8 37.82C27.32 37.54 27.2 36.94 27.46 36.46C28.46 34.62 29 32.54 29 30.46C29 23.14 22.72 17.18 15 17.18C13.42 17.18 11.88 17.42 10.44 17.9C9.70003 18.14 8.98003 17.46 9.16003 16.7C10.98 9.42 17.98 4 26.34 4C36.1 4 44 11.38 44 20.48C44 25.88 41.22 30.66 36.94 33.66Z" fill="#EA1C24"/>
<path d="M26 30.4601C26 32.8401 25.12 35.0401 23.64 36.7801C21.66 39.1801 18.52 40.7201 15 40.7201L9.78 43.8201C8.9 44.3601 7.78 43.6201 7.9 42.6L8.4 38.6601C5.72 36.8001 4 33.8201 4 30.4601C4 26.9401 5.88 23.8401 8.76 22.0001C10.54 20.8401 12.68 20.1801 15 20.1801C21.08 20.1801 26 24.7801 26 30.4601Z" fill="#EA1C24"/>
</svg>
