<svg width="577" height="456" viewBox="0 0 577 456" fill="none" xmlns="http://www.w3.org/2000/svg">
<path d="M237 312.842C237 398.934 227.294 428.053 145 428.053C53 428.053 53 392.603 53 312.842C53 262.032 102.376 199.319 145 199.319C187.624 199.319 237 262.032 237 312.842Z" fill="#F2C0AD"/>
<path d="M144.774 209.802C166.216 209.802 183.827 193.394 185.734 172.449C185.897 170.654 184.069 169.423 182.369 170.02C163.227 176.738 149.46 172.064 144.774 168.671C126.968 159.768 111.408 164.131 104.78 167.961C104.052 168.382 103.637 169.177 103.664 170.018C104.374 192.111 122.508 209.802 144.774 209.802Z" fill="#F2C0AD"/>
<path d="M119.679 203.961L168.633 203.961" stroke="white" stroke-width="5.90826" stroke-linecap="round"/>
<path d="M120.101 212.823L164.977 203.961" stroke="white" stroke-width="5.90826" stroke-linecap="round"/>
<path d="M166.945 203.961C172.431 208.885 183.573 221.939 184.248 234.768" stroke="white" stroke-width="5.90826" stroke-linecap="round"/>
<path d="M167.857 204.805C181.361 219.154 154.774 231.392 177.142 246.163" stroke="white" stroke-width="5.90826" stroke-linecap="round"/>
<path d="M61.0182 352.089C58.4861 371.924 63.5503 414.126 116.725 420.878C93.0915 412.438 67.7706 390.578 61.0182 352.089Z" fill="#DDADC0"/>
<path d="M106.174 175.264C107.722 181.453 113.264 194.93 123.055 199.319C119.538 196.787 111.239 188.431 106.174 175.264Z" fill="#DDADC0"/>
<circle cx="225" cy="386" r="49" fill="#2CD15A"/>
<path fill-rule="evenodd" clip-rule="evenodd" d="M253.524 361.043C255.605 362.534 256.083 365.429 254.592 367.51L228.263 404.261C223.74 410.575 214.632 411.323 209.14 405.83L195.236 391.926C193.426 390.116 193.426 387.181 195.236 385.371C197.046 383.561 199.981 383.561 201.791 385.371L215.695 399.275C217.14 400.721 219.537 400.524 220.728 398.862L247.056 362.112C248.547 360.031 251.443 359.552 253.524 361.043Z" fill="white"/>
<g clip-path="url(#clip0_1017_326)">
<path d="M542.2 247.646C549.144 238.576 565.677 235.203 571.394 229.482C578.875 221.98 578.843 210.724 572.467 206.66C566.937 203.133 548.591 226.979 546.534 229.661C539.418 238.836 537.361 245.639 536.027 252.23C536.182 246.63 536.328 241.478 536.45 237.512C536.832 224.565 537.312 220.395 537.54 219.119C538.353 218.486 539.215 217.762 539.736 217.372C544.176 214.064 554.016 210.123 558.935 205.319C566.124 198.297 564.961 189.877 559.919 186.765C554.658 183.514 545.339 191.226 540.402 198.891C535.466 206.555 537.572 213.902 536.19 220.217C535.897 221.468 535.596 226.206 535.32 232.782C534.149 226.302 530.563 220.508 525.285 216.567C518.478 211.138 512.599 204.523 506.987 205.376C501.376 206.23 504.426 214.983 508.833 221.127C512.786 226.597 532.295 232.058 535.165 236.455C534.824 245.395 534.523 256.651 534.311 267.168C532.774 261.739 533.832 261.284 527.529 252.945C523.788 248.004 508.419 241.892 506.597 245.306C504.775 248.719 507.549 255.124 513.347 259.618C518.023 263.243 528.359 263.235 530.806 265.486C531.368 266.006 533.246 268.022 534.271 269.184C534.019 282.009 533.913 293.33 534.035 297.199L535.043 297.239C534.994 296.24 535.108 289.713 535.312 281.074C537.833 276.482 554.829 273.759 560.041 269.013C565.522 264.015 569.458 258.179 567.108 254.27C565.148 251.019 549.722 255.44 543.403 260.837C539.223 264.429 536.67 268.274 535.499 273.426C535.637 267.542 535.808 261.235 535.962 255.262C537.247 253.807 540.118 250.369 542.2 247.646Z" fill="#2CD15A"/>
<path d="M413.674 311.001C500.755 311.001 571.348 306.882 571.348 301.801C571.348 296.72 500.755 292.601 413.674 292.601C326.593 292.601 256 296.72 256 301.801C256 306.882 326.593 311.001 413.674 311.001Z" fill="#DCFFE6"/>
<path d="M386.252 83.4113C386.927 86.8329 385.439 88.4746 384.796 90.035C384.154 91.5955 382.275 92.6195 379.649 92.9771C379.32 93.0329 378.989 93.0709 378.657 93.0909C376.642 93.2093 374.621 93.103 372.631 92.7739C372.346 92.7739 372.061 92.6845 371.769 92.6358C369.432 92.2166 367.13 91.6244 364.881 90.864L364.068 90.5877C363.165 90.2707 362.238 89.9213 361.311 89.5393C360.384 89.1573 359.505 88.7265 358.635 88.3446L357.887 87.9869C355.837 86.9738 353.862 85.8168 351.975 84.5247L351.308 84.0533C349.662 82.89 348.153 81.5431 346.811 80.0384C346.608 79.8109 346.421 79.5914 346.242 79.3639C344.494 77.1532 343.802 75.0401 344.494 73.3578C344.949 72.2768 345.925 68.5789 347.324 68.0425C349.044 67.5581 350.865 67.5581 352.585 68.0425L353.398 68.2375C357.464 69.2778 362.588 71.5941 367.816 73.7479C373.981 76.2917 381.275 78.9331 384.853 81.9809C385.066 82.1599 385.27 82.3498 385.463 82.5498C385.749 82.8155 386.012 83.1035 386.252 83.4113Z" fill="#FFD48D"/>
<g opacity="0.2">
<path opacity="0.2" d="M353.805 67.5386L353.431 68.2212L346.828 80.0303C346.624 79.8027 346.437 79.5832 346.259 79.3557L352.602 68.0262L353.098 67.1484L353.805 67.5386Z" fill="black"/>
</g>
<g opacity="0.2">
<path opacity="0.2" d="M358.798 72.358L351.992 84.549L351.325 84.0776L358.091 71.9841L358.798 72.358Z" fill="black"/>
</g>
<g opacity="0.2">
<path opacity="0.2" d="M371.314 79.3477L364.881 90.8642L364.068 90.5878L370.574 78.917L371.314 79.3477Z" fill="black"/>
</g>
<g opacity="0.2">
<path opacity="0.2" d="M365.491 76.0965L358.652 88.3444L357.904 87.9868L364.784 75.6658L365.491 76.0965Z" fill="black"/>
</g>
<g opacity="0.2">
<path opacity="0.2" d="M378.901 81.5738L372.631 92.7733C372.346 92.7733 372.062 92.6839 371.769 92.6351L378.185 81.1675L378.901 81.5738Z" fill="black"/>
</g>
<path d="M386.204 86.2313C384.407 90.5957 373.957 90.425 362.865 85.8493C351.773 81.2736 344.242 74.0403 346.048 69.6759C347.853 65.3116 358.295 65.4904 369.387 70.0579C380.479 74.6255 388.001 81.8425 386.204 86.2313Z" fill="#F2C0AD"/>
<path opacity="0.2" d="M382.43 84.6463C381.161 87.7266 373.013 87.2958 364.239 83.6792C355.464 80.0625 349.381 74.6253 350.65 71.5451C351.918 68.4648 360.067 68.8956 368.849 72.5122C377.632 76.1289 383.707 81.5661 382.43 84.6463Z" fill="white"/>
<path d="M435.818 46.0344C439.127 47.156 439.811 49.2854 440.843 50.5857C441.876 51.8861 441.835 54.0561 440.843 56.5187C440.729 56.8194 440.591 57.1201 440.445 57.4289C439.554 59.2357 438.463 60.9369 437.192 62.5004C437.021 62.728 436.834 62.9474 436.647 63.175C435.118 64.9978 433.454 66.7039 431.67 68.2789L431.044 68.8235C430.32 69.4493 429.556 70.0751 428.767 70.6846C427.978 71.2942 427.189 71.8712 426.393 72.4157C426.173 72.5783 425.937 72.7327 425.718 72.8871C423.818 74.1609 421.828 75.2963 419.765 76.2843C419.513 76.4144 419.269 76.52 419.033 76.6338C417.2 77.4814 415.276 78.1193 413.3 78.5356C413.007 78.6006 412.722 78.6494 412.438 78.69C409.648 79.1045 407.469 78.69 406.355 77.219C405.639 76.2925 402.915 73.6023 403.151 72.1313C403.576 70.3923 404.481 68.8072 405.761 67.5556C405.94 67.3524 406.135 67.1492 406.339 66.9379C409.274 63.8983 413.82 60.6392 418.293 57.1851C423.571 53.1215 429.491 48.0906 433.907 46.5139C434.173 46.4161 434.445 46.332 434.72 46.262C435.08 46.1595 435.447 46.0834 435.818 46.0344Z" fill="#FFD48D"/>
<g opacity="0.2">
<path opacity="0.2" d="M405.908 66.2705L406.314 66.9369L413.275 78.5346C412.982 78.5997 412.698 78.6484 412.413 78.6891L405.737 67.5384L405.216 66.7256L405.908 66.2705Z" fill="black"/>
</g>
<g opacity="0.2">
<path opacity="0.2" d="M412.568 64.3367L419.74 76.2838C419.488 76.4139 419.244 76.5195 419.008 76.6333L411.868 64.7512L412.568 64.3367Z" fill="black"/>
</g>
<g opacity="0.2">
<path opacity="0.2" d="M424.855 56.9729L431.646 68.2861L431.02 68.8307L424.156 57.3874L424.855 56.9729Z" fill="black"/>
</g>
<g opacity="0.2">
<path opacity="0.2" d="M419.147 60.3945L426.368 72.4149C426.149 72.5774 425.913 72.7318 425.693 72.8862L418.439 60.809L419.147 60.3945Z" fill="black"/>
</g>
<g opacity="0.2">
<path opacity="0.2" d="M430.564 51.4871L437.168 62.4996C436.997 62.7272 436.81 62.9466 436.623 63.1742L429.865 51.9097L430.564 51.4871Z" fill="black"/>
</g>
<path d="M426.272 67.494C435.756 60.1524 441.101 51.1775 438.211 47.4479C435.32 43.7183 425.289 46.6464 415.805 53.9879C406.321 61.3295 400.976 70.3044 403.866 74.034C406.757 77.7636 416.788 74.8355 426.272 67.494Z" fill="#F2C0AD"/>
<path opacity="0.2" d="M425.096 65.2316C432.602 59.4211 437.031 52.5733 434.988 49.9366C432.944 47.3 425.203 49.873 417.696 55.6836C410.19 61.4942 405.762 68.342 407.805 70.9786C409.849 73.6152 417.59 71.0422 425.096 65.2316Z" fill="white"/>
<path d="M401.589 25.2757C403.216 28.9655 401.923 31.168 401.589 33.0861C401.256 35.0041 399.393 36.6052 396.531 37.6618C396.181 37.7999 395.815 37.9137 395.441 38.0275C393.202 38.6564 390.9 39.0353 388.578 39.1572C388.244 39.1572 387.919 39.1572 387.577 39.2141C384.841 39.3147 382.102 39.2141 379.38 38.9134L378.429 38.7915C377.331 38.6533 376.201 38.4908 375.07 38.2876C373.94 38.0844 372.842 37.8568 371.76 37.6049C371.451 37.5399 371.142 37.4586 370.833 37.3854C368.278 36.7549 365.773 35.94 363.336 34.9473C363.035 34.8335 362.75 34.7034 362.465 34.5896C360.327 33.6797 358.297 32.532 356.415 31.168C356.131 30.9649 355.87 30.7617 355.602 30.5504C353.081 28.4941 351.788 26.2835 352.154 24.2273C352.398 22.8944 352.593 18.5382 354.024 17.5548C355.456 16.5714 357.505 16.2625 359.944 16.2544H360.92C365.8 16.4169 372.086 17.7742 378.502 18.912C386.065 20.2612 394.921 21.4396 399.686 23.9916C399.966 24.1397 400.237 24.3024 400.499 24.4792C400.883 24.716 401.247 24.9823 401.589 25.2757Z" fill="#FFD48D"/>
<g opacity="0.2">
<path opacity="0.2" d="M361.189 15.4254L360.929 16.2788L356.407 31.1843C356.123 30.9811 355.862 30.778 355.594 30.5666L359.937 16.2707L360.278 15.1572L361.189 15.4254Z" fill="black"/>
</g>
<g opacity="0.2">
<path opacity="0.2" d="M367.988 19.5877L363.328 34.9402C363.027 34.8264 362.743 34.6964 362.458 34.5826L367.093 19.3032L367.988 19.5877Z" fill="black"/>
</g>
<g opacity="0.2">
<path opacity="0.2" d="M383.789 24.3984L379.373 38.9382L378.421 38.8163L382.886 24.1221L383.789 24.3984Z" fill="black"/>
</g>
<g opacity="0.2">
<path opacity="0.2" d="M376.445 22.1712L371.753 37.6132C371.444 37.5482 371.135 37.4669 370.826 37.3937L375.542 21.8787L376.445 22.1712Z" fill="black"/>
</g>
<g opacity="0.2">
<path opacity="0.2" d="M392.872 25.0338L388.57 39.1835C388.236 39.1835 387.911 39.1835 387.57 39.2404L391.969 24.7656L392.872 25.0338Z" fill="black"/>
</g>
<path d="M402.223 28.4417C403.175 23.0945 392.921 16.7988 379.319 14.3799C365.718 11.961 353.92 14.3348 352.968 19.682C352.016 25.0292 362.27 31.3249 375.871 33.7438C389.473 36.1627 401.271 33.7889 402.223 28.4417Z" fill="#F2C0AD"/>
<path opacity="0.2" d="M397.594 27.6234C398.267 23.845 390.087 19.2304 379.325 17.3163C368.562 15.4023 359.292 16.9137 358.619 20.6921C357.946 24.4704 366.126 29.0851 376.888 30.9991C387.651 32.9132 396.921 31.4018 397.594 27.6234Z" fill="white"/>
<path d="M472.583 169.642L388.895 174.518C385.939 174.692 383.038 175.397 380.332 176.599L289.431 217.235C287.836 217.936 286.53 219.163 285.731 220.71C284.932 222.257 284.688 224.031 285.04 225.737L300.06 296.729C300.314 297.872 300.826 298.942 301.557 299.857C302.288 300.772 303.219 301.508 304.279 302.008C305.338 302.509 306.498 302.76 307.669 302.744C308.841 302.728 309.993 302.444 311.038 301.914L400.76 257.149L483.61 254.377C484.63 254.35 485.632 254.106 486.55 253.662C487.467 253.217 488.28 252.583 488.933 251.8C489.586 251.017 490.065 250.104 490.338 249.122C490.61 248.14 490.671 247.111 490.514 246.104L479.43 178.127C478.853 174.616 476.186 169.536 472.583 169.642Z" fill="#407BFF"/>
<path d="M472.583 169.642L388.895 174.518C385.939 174.692 383.038 175.397 380.332 176.599L289.431 217.235C287.836 217.936 286.53 219.163 285.731 220.71C284.932 222.257 284.688 224.031 285.04 225.737L300.06 296.729C300.314 297.872 300.826 298.942 301.557 299.857C302.288 300.772 303.219 301.508 304.279 302.008C305.338 302.509 306.498 302.76 307.669 302.744C308.841 302.728 309.993 302.444 311.038 301.914L400.76 257.149L483.61 254.377C484.63 254.35 485.632 254.106 486.55 253.662C487.467 253.217 488.28 252.583 488.933 251.8C489.586 251.017 490.065 250.104 490.338 249.122C490.61 248.14 490.671 247.111 490.514 246.104L479.43 178.127C478.853 174.616 476.186 169.536 472.583 169.642Z" fill="#403C51"/>
<path d="M377.979 202.988C380.976 206.237 380.77 211.301 377.519 214.296L345.365 243.914C342.117 246.906 337.058 246.7 334.064 243.453L266.111 169.772C263.114 166.523 263.32 161.459 266.571 158.464L289.505 137.336L301.877 125.936C303.384 124.548 305.731 124.645 307.119 126.153L377.979 202.988Z" fill="#2CD15A"/>
<path d="M301.21 132.028L269.813 160.953C267.782 162.824 267.653 165.987 269.525 168.016L336.465 240.592C338.337 242.622 341.502 242.75 343.533 240.879L374.93 211.954C376.961 210.083 377.089 206.921 375.217 204.891L308.277 132.316C306.405 130.286 303.241 130.157 301.21 132.028Z" stroke="#9EFBB8" stroke-width="0.813374" stroke-miterlimit="10"/>
<path d="M331.091 195.916C335.536 191.822 334.974 183.986 329.835 178.415C324.697 172.844 316.928 171.647 312.483 175.742C308.038 179.837 308.601 187.673 313.739 193.244C318.877 198.815 326.646 200.011 331.091 195.916Z" fill="#C0FFD2"/>
<path opacity="0.1" d="M339.021 214.651L323.415 220.04L289.504 137.336L304.606 123.422L307.118 126.153L339.021 214.651Z" fill="black"/>
<path d="M334.541 92.6667L293.43 107.564C289.276 109.069 287.13 113.657 288.637 117.81L322.817 212.022C324.324 216.175 328.913 218.322 333.067 216.817L374.178 201.919C378.332 200.414 380.477 195.827 378.971 191.673L344.79 97.4615C343.283 93.3081 338.694 91.1614 334.541 92.6667Z" fill="#2CD15A"/>
<path d="M335.596 96.5707L295.45 111.119C292.853 112.059 291.512 114.926 292.454 117.522L326.119 210.315C327.061 212.91 329.929 214.252 332.525 213.311L372.671 198.763C375.268 197.823 376.609 194.956 375.667 192.36L342.002 99.5674C341.06 96.9716 338.192 95.6299 335.596 96.5707Z" stroke="#9EFBB8" stroke-width="0.813374" stroke-miterlimit="10"/>
<path d="M338.453 167.031C344.136 164.972 346.648 157.528 344.064 150.405C341.48 143.282 334.778 139.177 329.095 141.236C323.412 143.296 320.899 150.74 323.484 157.863C326.068 164.986 332.77 169.09 338.453 167.031Z" fill="#9EFBB8"/>
<path d="M473.128 172.528L390.587 177.177C387.661 177.337 384.79 178.04 382.122 179.249L292.554 219.658C290.977 220.371 289.69 221.6 288.906 223.143C288.122 224.686 287.889 226.45 288.244 228.143L303.264 299.168C303.506 300.304 304.006 301.37 304.724 302.283C305.442 303.196 306.361 303.932 307.408 304.435C308.456 304.938 309.605 305.195 310.767 305.185C311.929 305.175 313.074 304.899 314.113 304.377L402.509 259.864L484.221 257.28C485.232 257.248 486.225 257 487.134 256.554C488.042 256.108 488.845 255.474 489.488 254.693C490.132 253.912 490.601 253.003 490.865 252.027C491.129 251.05 491.181 250.029 491.019 249.03L479.902 181.061C479.325 177.518 476.69 172.43 473.128 172.528Z" fill="#201B33"/>
<path opacity="0.2" d="M393.945 189.611L464.768 185.255" stroke="black" stroke-width="1.62675" stroke-linecap="round" stroke-linejoin="round"/>
<path opacity="0.2" d="M385.464 191.439L398.402 250.834" stroke="black" stroke-width="1.62675" stroke-linecap="round" stroke-linejoin="round"/>
<path d="M299.198 245.063L308.322 290.747C308.322 290.747 315.316 272.623 299.198 245.063Z" fill="#403C51"/>
<path d="M300.394 245.6C300.711 246.413 381.438 211.79 381.438 211.79C381.657 219.64 379.693 227.396 375.765 234.197C371.838 240.998 366.099 246.577 359.189 250.314C334.89 263.927 300.394 245.6 300.394 245.6Z" fill="#403C51"/>
<path d="M354.017 246.948C355.948 246.948 357.514 245.384 357.514 243.454C357.514 241.524 355.948 239.959 354.017 239.959C352.086 239.959 350.52 241.524 350.52 243.454C350.52 245.384 352.086 246.948 354.017 246.948Z" fill="#F2C0AD"/>
<path opacity="0.2" d="M381.479 211.79C381.479 211.79 391.489 226.85 389.066 252.5L381.479 211.79Z" fill="black"/>
<g opacity="0.2">
<path opacity="0.2" d="M295.335 227.119L297.198 226.297" stroke="#FAFAFA" stroke-width="0.813374" stroke-linecap="round" stroke-linejoin="round"/>
<path d="M301.06 224.59L376.445 191.284" stroke="#403C51" stroke-width="0.813374" stroke-linecap="round" stroke-linejoin="round" stroke-dasharray="4.23 4.23"/>
<path opacity="0.2" d="M378.381 190.432L380.235 189.611" stroke="#FAFAFA" stroke-width="0.813374" stroke-linecap="round" stroke-linejoin="round"/>
</g>
<path opacity="0.2" d="M396.32 202.964L467.143 198.6" stroke="black" stroke-width="1.62675" stroke-linecap="round" stroke-linejoin="round"/>
<path opacity="0.2" d="M399.508 219.617L470.331 215.253" stroke="black" stroke-width="1.62675" stroke-linecap="round" stroke-linejoin="round"/>
<path d="M522.539 260.97L529.533 266.855L534.022 261.58L528.28 255.647L522.539 260.97Z" fill="#AE673F"/>
<path d="M454.807 101.317C454.807 101.317 453.026 120.278 445.975 121.912C441.609 122.854 437.057 122.399 432.964 120.611L427.231 116.206L424.433 125.959C424.433 125.959 427.491 130.112 433.874 127.235C433.874 127.235 445.259 132.241 451.554 127.235C457.848 122.229 459.865 108.493 459.865 108.493L454.807 101.317Z" fill="#B97964"/>
<path d="M460.475 92.1326C460.475 92.1326 455.555 83.7533 457.791 68.5633C460.028 53.3734 472.771 51.496 477.691 52.5931C482.611 53.6903 486.636 58.4123 489.986 67.4011C493.337 76.39 494.573 78.7306 500.16 77.1539C505.747 75.5772 520.612 70.6521 524.751 75.0327C525.942 76.2293 526.819 77.7006 527.306 79.3165C527.792 80.9325 527.873 82.6433 527.541 84.2979C527.541 84.2979 548.221 79.2752 546.432 97.7079C544.643 116.141 514.798 133.346 486.408 115.133C458.019 96.9196 460.475 92.1326 460.475 92.1326Z" fill="#201B33"/>
<path d="M460.247 136.744C460.247 136.744 454.628 185.045 454.815 207.696C455.002 230.346 463.053 283.727 463.053 283.727H472.982C472.982 283.727 471.673 241.042 471.86 226.437C472.047 211.832 474.665 187.67 474.665 187.67C474.665 187.67 477.845 209.386 481.594 217.058C485.343 224.73 506.137 251.884 520.563 260.312L527.305 254.127C527.305 254.127 512.317 235.597 506.698 226.421C501.079 217.245 496.029 214.644 493.963 197.577C491.897 180.51 495.467 153.21 489.474 136.736L460.247 136.744Z" fill="#201B33"/>
<path opacity="0.2" d="M474.665 187.67L470.347 157.054C470.347 157.054 466.94 175.455 473.649 197.927L474.665 187.67Z" fill="black"/>
<path d="M465.094 286.434L465.427 295.918L472.088 296.471L472.421 295.585V285.767L465.094 286.434Z" fill="#AE673F"/>
<path d="M461.93 282.824L462.54 286.376L473.974 286.652L474.698 282.385L461.93 282.824Z" fill="#407BFF"/>
<path d="M517.432 260.97L528.029 251.103L530.362 254.817L521.263 263.14L517.432 260.97Z" fill="#407BFF"/>
<path d="M535.38 261.173L539.609 263.774C539.801 263.893 539.966 264.052 540.09 264.241C540.215 264.43 540.297 264.644 540.33 264.867C540.363 265.091 540.347 265.319 540.283 265.536C540.219 265.753 540.108 265.953 539.958 266.123C536.892 269.585 529.061 278.379 528.28 278.997C527.313 279.809 526.142 278.444 525.841 277.225C525.841 277.225 528.061 274.283 528.28 272.397C528.373 270.941 528.373 269.481 528.28 268.025C528.263 267.66 528.385 267.303 528.622 267.025L533.347 261.482C533.591 261.193 533.931 261.003 534.305 260.946C534.679 260.889 535.061 260.97 535.38 261.173Z" fill="#263238"/>
<path d="M473.714 296.73L474.592 301.607C474.633 301.83 474.624 302.059 474.566 302.278C474.508 302.497 474.403 302.701 474.259 302.875C474.114 303.049 473.932 303.19 473.727 303.287C473.522 303.383 473.298 303.434 473.072 303.435C468.445 303.435 456.669 303.484 455.685 303.321C454.457 303.118 454.677 301.363 455.401 300.339C455.401 300.339 459.068 300.03 460.605 298.916C461.748 298.02 462.835 297.054 463.858 296.023C464.12 295.767 464.468 295.619 464.834 295.609L472.112 295.438C472.49 295.424 472.86 295.547 473.155 295.785C473.449 296.022 473.648 296.358 473.714 296.73Z" fill="#263238"/>
<path d="M490.539 109.956L500.688 102.836C500.688 102.836 497.988 92.0429 493.987 91.5065C489.986 90.9701 470.127 87.1909 457.498 91.5065C457.498 91.5065 452.96 92.7988 451.562 105.534L456.961 107.257C456.961 107.257 458.897 131.103 460.092 134.776H488.912C488.912 134.776 489.238 114.271 490.539 109.956Z" fill="#F2C0AD"/>
<path d="M492.727 108.42C492.727 108.42 496.573 119.392 497.256 125.292C497.256 125.292 488.116 121.651 485.757 119.985L483.968 113.565L477.918 110.615L476.121 115.491L481.171 121.749C481.171 121.749 494.939 134.623 501.916 131.681C508.893 128.738 499.159 103.934 499.159 103.934L492.727 108.42Z" fill="#AE673F"/>
<path d="M466.907 60.3794C466.907 60.3794 463.386 67.4014 463.654 73.115C463.922 78.8285 466.809 81.161 472.298 81.9656C472.298 81.9656 474.641 89.2802 468.493 90.0198C468.021 90.0767 467.858 91.9378 467.891 92.2386C468.054 93.4251 469.233 94.0753 470.33 94.3517C471.487 94.6076 472.667 94.7383 473.852 94.7418C475.095 94.7846 476.332 94.5442 477.469 94.0387C478.606 93.5332 479.613 92.7759 480.414 91.8241C480.544 91.6696 481.781 90.0929 481.781 90.0929C481.781 90.0929 478.845 88.6382 479.878 79.1129C481.279 78.2014 482.355 76.8699 482.952 75.3093C483.512 75.0118 484.008 74.6056 484.411 74.1144C484.813 73.6232 485.113 73.0569 485.294 72.4485C485.733 70.5467 484.049 67.9135 480.975 70.5467C480.975 70.5467 475.185 67.6209 472.99 57.3723C471.362 59.0345 469.217 60.0948 466.907 60.3794Z" fill="#AE673F"/>
<path opacity="0.2" d="M468.559 71.5549L469.055 67.8L466.395 70.7421C466.669 71.034 467.007 71.259 467.382 71.3999C467.757 71.5408 468.16 71.5938 468.559 71.5549Z" fill="#472410"/>
<path d="M470.103 74.3012C470.103 74.3012 472.909 74.7319 474.26 72.9358" stroke="#201B33" stroke-width="0.610031" stroke-linecap="round" stroke-linejoin="round"/>
<path d="M472.908 62.541C473.545 62.3599 474.22 62.3542 474.86 62.5246C475.5 62.695 476.082 63.0351 476.544 63.5089" stroke="#201B33" stroke-width="0.813374" stroke-linecap="round" stroke-linejoin="round"/>
<path d="M468.054 61.7277C468.054 61.7277 466.427 61.4755 465.703 62.3947" stroke="#201B33" stroke-width="0.813374" stroke-linecap="round" stroke-linejoin="round"/>
<path d="M474.04 67.4831C473.966 68.052 473.6 68.4665 473.226 68.4177C472.852 68.3689 472.6 67.8732 472.673 67.3043C472.746 66.7353 473.112 66.3209 473.486 66.3696C473.861 66.4184 474.113 66.9142 474.04 67.4831Z" fill="#201B33"/>
<path d="M467.547 66.225C467.621 65.6597 467.373 65.1615 466.995 65.1124C466.616 65.0632 466.249 65.4817 466.176 66.047C466.103 66.6123 466.35 67.1104 466.729 67.1595C467.107 67.2087 467.474 66.7903 467.547 66.225Z" fill="#201B33"/>
<path d="M473.495 66.3696L472.209 65.8083C472.226 65.949 472.28 66.0828 472.364 66.1965C472.449 66.3102 472.562 66.3999 472.691 66.4566C472.821 66.5133 472.964 66.5351 473.105 66.5198C473.245 66.5046 473.38 66.4528 473.495 66.3696Z" fill="#201B33"/>
<path d="M467.119 65.1662L465.834 64.605C465.851 64.7457 465.904 64.8795 465.989 64.9932C466.073 65.1069 466.186 65.1965 466.316 65.2532C466.446 65.3099 466.588 65.3317 466.729 65.3165C466.87 65.3012 467.004 65.2494 467.119 65.1662Z" fill="#201B33"/>
<path d="M459.084 133.509V136.898L490.311 137.158L489.474 133.127L459.084 133.509Z" fill="#407BFF"/>
<path d="M459.084 133.509V136.898L490.311 137.158L489.474 133.127L459.084 133.509Z" fill="#FFD48D"/>
<path d="M459.466 117.058L442.291 176.762C441.72 178.761 440.563 180.544 438.968 181.879C437.374 183.215 435.415 184.043 433.346 184.255C432.028 184.381 430.699 184.26 429.426 183.897L396.597 174.462C393.943 173.696 391.701 171.911 390.362 169.496C389.024 167.081 388.698 164.234 389.457 161.58L406.64 101.86C407.407 99.2115 409.194 96.9748 411.609 95.6403C414.023 94.3058 416.868 93.9823 419.521 94.7407L452.375 104.168C455.023 104.942 457.256 106.733 458.585 109.149C459.914 111.565 460.231 114.409 459.466 117.058Z" fill="#407BFF"/>
<path d="M459.466 117.058L442.291 176.762C441.72 178.761 440.563 180.544 438.968 181.879C437.374 183.215 435.415 184.043 433.346 184.255C432.028 184.381 430.699 184.26 429.426 183.897L396.597 174.462C393.943 173.696 391.701 171.911 390.362 169.496C389.024 167.081 388.698 164.234 389.457 161.58L406.64 101.86C407.407 99.2115 409.194 96.9748 411.609 95.6403C414.023 94.3058 416.868 93.9823 419.521 94.7407L452.375 104.168C455.023 104.942 457.256 106.733 458.585 109.149C459.914 111.565 460.231 114.409 459.466 117.058Z" fill="#5481F5"/>
<path d="M456.612 117.765L439.437 177.476C439.003 178.996 438.227 180.397 437.168 181.572C436.11 182.746 434.797 183.664 433.33 184.254C432.012 184.38 430.683 184.259 429.41 183.897L396.597 174.461C393.943 173.696 391.701 171.91 390.362 169.495C389.024 167.08 388.698 164.234 389.457 161.579L406.64 101.859C407.075 100.342 407.851 98.9432 408.91 97.7712C409.968 96.5993 411.281 95.6847 412.747 95.0975C414.065 94.9635 415.395 95.0849 416.667 95.4552L449.456 104.923C452.105 105.684 454.344 107.462 455.685 109.868C457.027 112.274 457.36 115.114 456.612 117.765Z" fill="#407BFF"/>
<path opacity="0.5" d="M456.612 117.765L439.437 177.476C439.003 178.996 438.227 180.397 437.168 181.572C436.11 182.746 434.797 183.664 433.33 184.254C432.012 184.38 430.683 184.259 429.41 183.897L396.597 174.461C393.943 173.696 391.701 171.91 390.362 169.495C389.024 167.08 388.698 164.234 389.457 161.579L406.64 101.859C407.075 100.342 407.851 98.9432 408.91 97.7712C409.968 96.5993 411.281 95.6847 412.747 95.0975C414.065 94.9635 415.395 95.0849 416.667 95.4552L449.456 104.923C452.105 105.684 454.344 107.462 455.685 109.868C457.027 112.274 457.36 115.114 456.612 117.765Z" fill="#CFDCFE"/>
<path d="M398.285 165.942L409.943 124.601C410.217 123.631 409.652 122.622 408.681 122.349C407.711 122.075 406.702 122.641 406.428 123.611L394.77 164.952C394.496 165.922 395.061 166.931 396.032 167.204C397.002 167.478 398.011 166.912 398.285 165.942Z" fill="#E2EAFF"/>
<path d="M403.333 167.35C403.058 168.326 402.04 168.892 401.065 168.61C400.1 168.331 399.541 167.325 399.814 166.358L411.468 125.031C411.743 124.059 412.756 123.495 413.728 123.774C414.692 124.051 415.251 125.055 414.979 126.021L403.333 167.35Z" fill="#E2EAFF"/>
<path d="M408.44 168.819C408.165 169.793 407.15 170.358 406.177 170.079C405.21 169.802 404.649 168.795 404.922 167.827L416.575 126.506C416.85 125.531 417.865 124.966 418.838 125.245C419.805 125.523 420.366 126.529 420.093 127.498L408.44 168.819Z" fill="#E2EAFF"/>
<path d="M428.884 174.721L440.542 133.38C440.816 132.41 440.251 131.401 439.28 131.128C438.31 130.854 437.301 131.42 437.027 132.39L425.369 173.731C425.095 174.701 425.66 175.71 426.631 175.983C427.601 176.257 428.61 175.691 428.884 174.721Z" fill="#5481F5"/>
<path d="M440.592 118.944L438.884 125.031L436.802 124.446C435.794 124.16 434.94 123.486 434.428 122.572C433.915 121.658 433.787 120.578 434.07 119.57L435.208 115.506L439.413 116.709C439.865 116.849 440.244 117.163 440.465 117.582C440.686 118.001 440.731 118.491 440.592 118.944Z" fill="#E2EAFF"/>
<path d="M439.591 115.961L435.387 114.758L436.647 110.304C436.788 109.805 437.026 109.338 437.347 108.93C437.669 108.522 438.068 108.182 438.521 107.928C438.974 107.675 439.473 107.513 439.988 107.452C440.504 107.391 441.027 107.433 441.527 107.574L443.69 108.183L441.803 114.742C441.741 114.969 441.633 115.181 441.487 115.365C441.342 115.55 441.16 115.704 440.954 115.817C440.748 115.931 440.521 116.002 440.287 116.027C440.053 116.052 439.817 116.029 439.591 115.961Z" fill="#E2EAFF"/>
<path d="M443.576 117.928L447.805 119.139L446.682 123.113C446.544 123.614 446.307 124.083 445.986 124.491C445.665 124.9 445.266 125.242 444.812 125.495C444.359 125.749 443.859 125.911 443.343 125.971C442.826 126.031 442.303 125.988 441.803 125.844L439.607 125.227L441.356 119.147C441.42 118.921 441.529 118.709 441.676 118.525C441.823 118.341 442.005 118.188 442.211 118.074C442.418 117.961 442.645 117.89 442.879 117.865C443.113 117.84 443.35 117.861 443.576 117.928Z" fill="#E2EAFF"/>
<path d="M449.301 113.865L448.024 118.384L443.796 117.173C443.343 117.041 442.961 116.735 442.732 116.323C442.504 115.91 442.448 115.424 442.576 114.971L444.463 108.412L446.569 109.005C447.068 109.145 447.534 109.382 447.941 109.701C448.348 110.021 448.689 110.418 448.942 110.87C449.196 111.321 449.358 111.818 449.42 112.332C449.481 112.846 449.441 113.367 449.301 113.865Z" fill="#E2EAFF"/>
</g>
<defs>
<clipPath id="clip0_1017_326">
<rect width="320" height="321" fill="white" transform="translate(257)"/>
</clipPath>
</defs>
</svg>
